<?xml version="1.0" encoding="UTF-8"?>
<svg width="144px" height="42px" viewBox="0 0 144 42" version="1.1" xmlns="http://www.w3.org/2000/svg" xmlns:xlink="http://www.w3.org/1999/xlink">
    <title>E523C5D1-F066-43A1-B079-ED2A99250A8A</title>
    <g id="Web" stroke="none" stroke-width="1" fill="none" fill-rule="evenodd">
        <g id="Nav_00" transform="translate(-246.000000, -1152.000000)">
            <g id="footer" transform="translate(-20.096874, 978.239928)">
                <g id="section" transform="translate(264.648717, 66.540231)">
                    <g id="Group-29" transform="translate(0.000000, 0.000000)">
                        <g id="Download_on_the_App_Store_Badge-2" transform="translate(0.000000, 105.698304)">
                            <g id="Download_on_the_App_Store_Badge" transform="translate(0.888799, 0.780604)">
                                <path d="M139.841222,42.962963 L5.0792963,42.962963 C2.27918519,42.962963 0,40.6773333 0,37.8793704 L0,5.07607407 C0,2.27703704 2.27918519,0 5.0792963,0 L139.841222,0 C142.640259,0 145,2.27703704 145,5.07607407 L145,37.8793704 C145,40.6773333 142.640259,42.962963 139.841222,42.962963 L139.841222,42.962963 Z" id="Path"></path>
                                <path d="M143.960296,37.8804444 C143.960296,40.1531852 142.119333,41.9941481 139.842296,41.9941481 L5.0792963,41.9941481 C2.80333333,41.9941481 0.955925926,40.1531852 0.955925926,37.8804444 L0.955925926,5.075 C0.955925926,2.80333333 2.80333333,0.955925926 5.0792963,0.955925926 L139.841222,0.955925926 C142.119333,0.955925926 143.960296,2.80333333 143.960296,5.075 L143.960296,37.8804444 L143.960296,37.8804444 Z" id="Path" fill="#000000"></path>
                                <g id="Group" transform="translate(12.888889, 6.444444)" fill="#FFFFFF">
                                    <path d="M19.4708148,14.805037 C19.4396667,11.3432963 22.3052963,9.65914815 22.4363333,9.58074074 C20.8134074,7.21455556 18.2979259,6.89125926 17.413963,6.86548148 C15.3012593,6.64314815 13.2519259,8.12966667 12.1757037,8.12966667 C11.078,8.12966667 9.4207037,6.88696296 7.63451852,6.92348148 C5.336,6.95892593 3.1857037,8.2897037 2.00637037,10.3562222 C-0.427481481,14.5698148 1.3877037,20.7618519 3.71951852,24.1677407 C4.88596296,25.8357778 6.24896296,27.6982222 8.033,27.6327037 C9.77837037,27.5607407 10.4303333,26.519963 12.5365926,26.519963 C14.6235185,26.519963 15.2357407,27.6327037 17.0552222,27.5908148 C18.9284074,27.5607407 20.1077407,25.9152593 21.2333704,24.2321852 C22.5813333,22.3203333 23.1226667,20.4374815 23.1441481,20.3408148 C23.1001111,20.3257778 19.5062593,18.9541852 19.4708148,14.805037 Z" id="Path"></path>
                                    <path d="M16.0337778,4.62496296 C16.9725185,3.451 17.6148148,1.85385185 17.4365185,0.233074074 C16.0778148,0.293222222 14.3786296,1.17288889 13.4001481,2.32107407 C12.5344444,3.33285185 11.7611111,4.99122222 11.9608889,6.55077778 C13.4871481,6.66462963 15.0542222,5.78066667 16.0337778,4.62496296 Z" id="Path"></path>
                                </g>
                                <g id="Group" transform="translate(45.111111, 19.333333)" fill="#FFFFFF">
                                    <path d="M12.5075926,14.5042963 L10.0683704,14.5042963 L8.73222222,10.3057407 L4.08792593,10.3057407 L2.81514815,14.5042963 L0.44037037,14.5042963 L5.0417037,0.210518519 L7.8837037,0.210518519 L12.5075926,14.5042963 Z M8.32944444,8.54425926 L7.12111111,4.81185185 C6.9932963,4.43055556 6.75377778,3.53262963 6.40040741,2.11914815 L6.35744444,2.11914815 C6.21674074,2.72707407 5.99011111,3.625 5.67862963,4.81185185 L4.49177778,8.54425926 L8.32944444,8.54425926 L8.32944444,8.54425926 Z" id="Shape" fill-rule="nonzero"></path>
                                    <path d="M24.3406667,9.22414815 C24.3406667,10.977037 23.867,12.3625926 22.9196667,13.3797407 C22.0711481,14.2851852 21.0174815,14.7373704 19.7597407,14.7373704 C18.4021111,14.7373704 17.4268519,14.2497407 16.8328889,13.2744815 L16.7899259,13.2744815 L16.7899259,18.7039259 L14.5,18.7039259 L14.5,7.59048148 C14.5,6.48848148 14.471,5.35748148 14.4151481,4.19748148 L16.429037,4.19748148 L16.5568519,5.83114815 L16.5998148,5.83114815 C17.3634815,4.60025926 18.5224074,3.98588889 20.0776667,3.98588889 C21.2935185,3.98588889 22.3085185,4.466 23.1205185,5.4272963 C23.9346667,6.38966667 24.3406667,7.65492593 24.3406667,9.22414815 Z M22.0077778,9.30792593 C22.0077778,8.30474074 21.7822222,7.4777037 21.328963,6.82681481 C20.8338148,6.148 20.168963,5.80859259 19.3354815,5.80859259 C18.7705185,5.80859259 18.2571111,5.99762963 17.7984815,6.37033333 C17.3387778,6.74625926 17.038037,7.23711111 16.8973333,7.84503704 C16.8264444,8.12859259 16.791,8.36059259 16.791,8.54318519 L16.791,10.2617037 C16.791,11.0114074 17.0208519,11.644037 17.4805556,12.1606667 C17.9402593,12.6772963 18.5374444,12.9350741 19.2721111,12.9350741 C20.1345926,12.9350741 20.8058889,12.6021111 21.286,11.9383333 C21.7671852,11.2734815 22.0077778,10.397037 22.0077778,9.30792593 Z" id="Shape" fill-rule="nonzero"></path>
                                    <path d="M36.1952222,9.22414815 C36.1952222,10.977037 35.7215556,12.3625926 34.7731481,13.3797407 C33.9257037,14.2851852 32.872037,14.7373704 31.6142963,14.7373704 C30.2566667,14.7373704 29.2814074,14.2497407 28.6885185,13.2744815 L28.6455556,13.2744815 L28.6455556,18.7039259 L26.3556296,18.7039259 L26.3556296,7.59048148 C26.3556296,6.48848148 26.3266296,5.35748148 26.2707778,4.19748148 L28.2846667,4.19748148 L28.4124815,5.83114815 L28.4554444,5.83114815 C29.218037,4.60025926 30.376963,3.98588889 31.9332963,3.98588889 C33.1480741,3.98588889 34.1630741,4.466 34.9772222,5.4272963 C35.7881481,6.38966667 36.1952222,7.65492593 36.1952222,9.22414815 Z M33.8623333,9.30792593 C33.8623333,8.30474074 33.6357037,7.4777037 33.1824444,6.82681481 C32.6872963,6.148 32.0245926,5.80859259 31.190037,5.80859259 C30.624,5.80859259 30.1116667,5.99762963 29.651963,6.37033333 C29.1922593,6.74625926 28.8925926,7.23711111 28.7518889,7.84503704 C28.6820741,8.12859259 28.6455556,8.36059259 28.6455556,8.54318519 L28.6455556,10.2617037 C28.6455556,11.0114074 28.8754074,11.644037 29.332963,12.1606667 C29.7926667,12.6762222 30.3898519,12.9350741 31.1266667,12.9350741 C31.9891481,12.9350741 32.6604444,12.6021111 33.1405556,11.9383333 C33.6217407,11.2734815 33.8623333,10.397037 33.8623333,9.30792593 Z" id="Shape" fill-rule="nonzero"></path>
                                    <path d="M49.4492963,10.4958519 C49.4492963,11.7117037 49.0271852,12.7009259 48.1797407,13.4645926 C47.2485185,14.2991481 45.9521111,14.7158889 44.2862222,14.7158889 C42.7481481,14.7158889 41.5151111,14.4194444 40.5817407,13.8254815 L41.1123333,11.9168519 C42.1176667,12.5247778 43.2207407,12.8298148 44.4226296,12.8298148 C45.2851111,12.8298148 45.9564074,12.6343333 46.4386667,12.2455185 C46.9187778,11.8567037 47.1582963,11.3347037 47.1582963,10.6838148 C47.1582963,10.1038148 46.9606667,9.61511111 46.5643333,9.21877778 C46.1701481,8.82244444 45.5117407,8.45403704 44.5923333,8.11355556 C42.0897407,7.18018519 40.8395185,5.81288889 40.8395185,4.01488889 C40.8395185,2.83985185 41.2777407,1.87640741 42.1552593,1.1267037 C43.0295556,0.375925926 44.196,0.00107407407 45.6545926,0.00107407407 C46.9552963,0.00107407407 48.0358148,0.227703704 48.8982963,0.679888889 L48.3258148,2.54662963 C47.5202593,2.10840741 46.6094444,1.8892963 45.5901481,1.8892963 C44.7845926,1.8892963 44.1551852,2.088 43.7040741,2.48325926 C43.3227778,2.83662963 43.1315926,3.26733333 43.1315926,3.77751852 C43.1315926,4.34248148 43.3496296,4.8097037 43.7878519,5.17703704 C44.1691481,5.51644444 44.8619259,5.88377778 45.8672593,6.28011111 C47.0970741,6.77525926 48.0003704,7.35418519 48.5814444,8.01796296 C49.1603704,8.67959259 49.4492963,9.5077037 49.4492963,10.4958519 Z" id="Path"></path>
                                    <path d="M57.0204444,5.916 L54.4963704,5.916 L54.4963704,10.9201111 C54.4963704,12.1928889 54.941037,12.8287407 55.8325185,12.8287407 C56.2417407,12.8287407 56.5811481,12.7932963 56.8496667,12.7224074 L56.913037,14.4613333 C56.4619259,14.629963 55.867963,14.7148148 55.1322222,14.7148148 C54.2278519,14.7148148 53.5211111,14.4387778 53.0109259,13.8877778 C52.5028889,13.3357037 52.2472593,12.4098519 52.2472593,11.1091481 L52.2472593,5.91385185 L50.7435556,5.91385185 L50.7435556,4.19533333 L52.2472593,4.19533333 L52.2472593,2.30818519 L54.4963704,1.62937037 L54.4963704,4.19533333 L57.0204444,4.19533333 L57.0204444,5.916 Z" id="Path"></path>
                                    <path d="M68.4088519,9.26603704 C68.4088519,10.8502963 67.9555926,12.151 67.0512222,13.1681481 C66.1028148,14.2153704 64.844,14.7373704 63.2747778,14.7373704 C61.7624815,14.7373704 60.5584444,14.2357778 59.6605185,13.2325926 C58.7625926,12.2294074 58.3136296,10.9630741 58.3136296,9.43681481 C58.3136296,7.83966667 58.7754815,6.53144444 59.7024074,5.5142963 C60.6271852,4.49607407 61.8752593,3.98696296 63.4444815,3.98696296 C64.9567778,3.98696296 66.1737037,4.48855556 67.092037,5.49281481 C67.9706296,6.467 68.4088519,7.72474074 68.4088519,9.26603704 Z M66.033,9.34014815 C66.033,8.38959259 65.83,7.57437037 65.4186296,6.89448148 C64.9385185,6.07174074 64.2521852,5.66144444 63.3628519,5.66144444 C62.4423704,5.66144444 61.7431481,6.07281481 61.263037,6.89448148 C60.8516667,7.57544444 60.6486667,8.40355556 60.6486667,9.38311111 C60.6486667,10.3336667 60.8516667,11.1488889 61.263037,11.8277037 C61.7581852,12.6504444 62.4498889,13.0607407 63.3424444,13.0607407 C64.2167407,13.0607407 64.9030741,12.6418519 65.3982222,11.8062222 C65.8203333,11.1134444 66.033,10.2896296 66.033,9.34014815 Z" id="Shape" fill-rule="nonzero"></path>
                                    <path d="M75.8521852,6.21137037 C75.6255556,6.16948148 75.3838889,6.148 75.1304074,6.148 C74.3248519,6.148 73.7018889,6.45196296 73.2636667,7.06096296 C72.8823704,7.598 72.6911852,8.27681481 72.6911852,9.09633333 L72.6911852,14.5042963 L70.4023333,14.5042963 L70.4238148,7.44333333 C70.4238148,6.25540741 70.3948148,5.17381481 70.3378889,4.19855556 L72.3324444,4.19855556 L72.4162222,6.17055556 L72.4795926,6.17055556 C72.7212593,5.49281481 73.1025556,4.94718519 73.6245556,4.53796296 C74.1347407,4.16955556 74.6857407,3.98588889 75.2797037,3.98588889 C75.4912963,3.98588889 75.6824815,4.00092593 75.8521852,4.02777778 L75.8521852,6.21137037 Z" id="Path"></path>
                                    <path d="M86.0934815,8.86325926 C86.0934815,9.27355556 86.0666296,9.61940741 86.0097037,9.90188889 L79.1399259,9.90188889 C79.1667778,10.9201111 79.4986667,11.6988148 80.1366667,12.2358519 C80.7155926,12.715963 81.4642222,12.9565556 82.3836296,12.9565556 C83.4007778,12.9565556 84.3287778,12.7943704 85.1633333,12.4689259 L85.5220741,14.0585556 C84.5468148,14.4838889 83.3954074,14.6954815 82.0667778,14.6954815 C80.4685556,14.6954815 79.214037,14.225037 78.3010741,13.2852222 C77.3902593,12.3454074 76.9337778,11.0833704 76.9337778,9.50018519 C76.9337778,7.946 77.358037,6.65174074 78.2076296,5.61955556 C79.096963,4.51755556 80.2988519,3.96655556 81.8111481,3.96655556 C83.2965926,3.96655556 84.4211481,4.51755556 85.1848148,5.61955556 C85.7895185,6.49492593 86.0934815,7.57759259 86.0934815,8.86325926 Z M83.9098889,8.2692963 C83.9249259,7.59048148 83.7756296,7.00403704 83.4652222,6.50888889 C83.0688889,5.87196296 82.4598889,5.55403704 81.6403704,5.55403704 C80.8917407,5.55403704 80.2827407,5.86444444 79.8176667,6.48740741 C79.4363704,6.98255556 79.2097407,7.57651852 79.1399259,8.26822222 L83.9098889,8.26822222 L83.9098889,8.2692963 Z" id="Shape" fill-rule="nonzero"></path>
                                </g>
                                <g id="Group" transform="translate(46.185185, 6.444444)" fill="#FFFFFF">
                                    <path d="M6.49814815,4.30596296 C6.49814815,5.57014815 6.119,6.52177778 5.36177778,7.16085185 C4.66040741,7.75051852 3.66366667,8.04588889 2.37262963,8.04588889 C1.73248148,8.04588889 1.1847037,8.01796296 0.726074074,7.96211111 L0.726074074,1.05474074 C1.32433333,0.958074074 1.96877778,0.908666667 2.66477778,0.908666667 C3.89459259,0.908666667 4.82151852,1.17611111 5.44662963,1.711 C6.14692593,2.3157037 6.49814815,3.18033333 6.49814815,4.30596296 Z M5.3112963,4.33711111 C5.3112963,3.51759259 5.09433333,2.88925926 4.66040741,2.45103704 C4.22648148,2.01388889 3.59277778,1.79477778 2.75822222,1.79477778 C2.40377778,1.79477778 2.10196296,1.81840741 1.8517037,1.86781481 L1.8517037,7.11896296 C1.99025926,7.14044444 2.24374074,7.15011111 2.61214815,7.15011111 C3.47355556,7.15011111 4.13840741,6.91059259 4.6067037,6.43155556 C5.075,5.95251852 5.3112963,5.25437037 5.3112963,4.33711111 Z" id="Shape" fill-rule="nonzero"></path>
                                    <path d="M12.7911481,5.41011111 C12.7911481,6.18881481 12.5688148,6.82681481 12.1241481,7.32733333 C11.658,7.84181481 11.0404074,8.09851852 10.2692222,8.09851852 C9.52596296,8.09851852 8.93414815,7.85255556 8.4927037,7.35848148 C8.05233333,6.86548148 7.83214815,6.24359259 7.83214815,5.49388889 C7.83214815,4.70981481 8.05877778,4.06644444 8.51418519,3.567 C8.96959259,3.06755556 9.58181481,2.8172963 10.353,2.8172963 C11.0962593,2.8172963 11.6934444,3.06325926 12.1456296,3.55625926 C12.5752593,4.0352963 12.7911481,4.65396296 12.7911481,5.41011111 Z M11.6236296,5.44662963 C11.6236296,4.97940741 11.5226667,4.57877778 11.3218148,4.24474074 C11.0855185,3.84088889 10.7493333,3.63896296 10.3121852,3.63896296 C9.86,3.63896296 9.5162963,3.84088889 9.28,4.24474074 C9.07807407,4.57877778 8.97818519,4.98585185 8.97818519,5.46703704 C8.97818519,5.93425926 9.07914815,6.33488889 9.28,6.66892593 C9.52381481,7.07277778 9.86322222,7.2747037 10.3014444,7.2747037 C10.7310741,7.2747037 11.0683333,7.06955556 11.3110741,6.65818519 C11.5194444,6.3177037 11.6236296,5.91385185 11.6236296,5.44662963 Z" id="Shape" fill-rule="nonzero"></path>
                                    <path d="M21.2290741,2.92040741 L19.6448148,7.98359259 L18.6137037,7.98359259 L17.9574444,5.78496296 C17.790963,5.23611111 17.6556296,4.69048148 17.5503704,4.14914815 L17.529963,4.14914815 C17.4322222,4.70551852 17.2968889,5.25007407 17.1228889,5.78496296 L16.4258148,7.98359259 L15.3828889,7.98359259 L13.8931481,2.92040741 L15.0499259,2.92040741 L15.6224074,5.32740741 C15.760963,5.89666667 15.8748148,6.43907407 15.9661111,6.95248148 L15.9865185,6.95248148 C16.0702963,6.5292963 16.2088519,5.99011111 16.4043333,5.33814815 L17.1228889,2.92148148 L18.0401481,2.92148148 L18.7286296,5.28659259 C18.8951111,5.86337037 19.0304444,6.41866667 19.1346296,6.95355556 L19.1657778,6.95355556 C19.242037,6.43262963 19.356963,5.87733333 19.5094815,5.28659259 L20.1238519,2.92148148 L21.2290741,2.92148148 L21.2290741,2.92040741 Z" id="Path"></path>
                                    <path d="M27.0645185,7.98359259 L25.9388889,7.98359259 L25.9388889,5.08359259 C25.9388889,4.18996296 25.5994815,3.74314815 24.9185185,3.74314815 C24.5844815,3.74314815 24.3148889,3.86559259 24.1054444,4.11155556 C23.8981481,4.35751852 23.7928889,4.64751852 23.7928889,4.97940741 L23.7928889,7.98251852 L22.6672593,7.98251852 L22.6672593,4.36718519 C22.6672593,3.92251852 22.6532963,3.44025926 22.6264444,2.91825926 L23.6156667,2.91825926 L23.6682963,3.70985185 L23.6994444,3.70985185 C23.8304815,3.46388889 24.025963,3.26088889 24.2826667,3.0987037 C24.5877037,2.90966667 24.9292593,2.81407407 25.303037,2.81407407 C25.7756296,2.81407407 26.1687407,2.96659259 26.4812963,3.2727037 C26.8701111,3.64755556 27.0645185,4.20714815 27.0645185,4.95040741 L27.0645185,7.98359259 L27.0645185,7.98359259 Z" id="Path"></path>
                                    <polygon id="Path" points="30.1685926 7.98359259 29.044037 7.98359259 29.044037 0.597185185 30.1685926 0.597185185"></polygon>
                                    <path d="M36.7956296,5.41011111 C36.7956296,6.18881481 36.5732963,6.82681481 36.1286296,7.32733333 C35.6624815,7.84181481 35.0438148,8.09851852 34.2737037,8.09851852 C33.5293704,8.09851852 32.9375556,7.85255556 32.4971852,7.35848148 C32.0568148,6.86548148 31.8366296,6.24359259 31.8366296,5.49388889 C31.8366296,4.70981481 32.0632593,4.06644444 32.5186667,3.567 C32.9740741,3.06755556 33.5862963,2.8172963 34.3564074,2.8172963 C35.1007407,2.8172963 35.6968519,3.06325926 36.1501111,3.55625926 C36.5797407,4.0352963 36.7956296,4.65396296 36.7956296,5.41011111 Z M35.627037,5.44662963 C35.627037,4.97940741 35.5260741,4.57877778 35.3252222,4.24474074 C35.09,3.84088889 34.7527407,3.63896296 34.3166667,3.63896296 C33.8634074,3.63896296 33.5197037,3.84088889 33.2844815,4.24474074 C33.0825556,4.57877778 32.9826667,4.98585185 32.9826667,5.46703704 C32.9826667,5.93425926 33.0836296,6.33488889 33.2844815,6.66892593 C33.5282963,7.07277778 33.8677037,7.2747037 34.3059259,7.2747037 C34.7355556,7.2747037 35.0717407,7.06955556 35.3144815,6.65818519 C35.5239259,6.3177037 35.627037,5.91385185 35.627037,5.44662963 Z" id="Shape" fill-rule="nonzero"></path>
                                    <path d="M42.2433333,7.98359259 L41.2326296,7.98359259 L41.1488519,7.40037037 L41.1177037,7.40037037 C40.7718519,7.86544444 40.2788519,8.09851852 39.6387037,8.09851852 C39.1607407,8.09851852 38.7740741,7.94492593 38.483,7.63988889 C38.2187778,7.36277778 38.0866667,7.018 38.0866667,6.60877778 C38.0866667,5.99011111 38.3444444,5.51859259 38.8632222,5.19207407 C39.3809259,4.86555556 40.1091481,4.70551852 41.0468148,4.71303704 L41.0468148,4.61851852 C41.0468148,3.95151852 40.6966667,3.61855556 39.9952963,3.61855556 C39.4958519,3.61855556 39.0554815,3.74422222 38.6752593,3.99340741 L38.4464815,3.25444444 C38.9169259,2.96337037 39.498,2.8172963 40.1832593,2.8172963 C41.5065185,2.8172963 42.1702963,3.51544444 42.1702963,4.91174074 L42.1702963,6.77633333 C42.1702963,7.28222222 42.195,7.685 42.2433333,7.98359259 Z M41.0747407,6.24359259 L41.0747407,5.46274074 C39.8331111,5.44125926 39.2122963,5.78174074 39.2122963,6.48311111 C39.2122963,6.74733333 39.2831852,6.94496296 39.4281852,7.07707407 C39.5731852,7.20918519 39.7579259,7.2747037 39.9781111,7.2747037 C40.2251481,7.2747037 40.4560741,7.1962963 40.6665926,7.04055556 C40.8781852,6.88374074 41.0081481,6.68503704 41.0564815,6.44122222 C41.0682963,6.38644444 41.0747407,6.31985185 41.0747407,6.24359259 Z" id="Shape" fill-rule="nonzero"></path>
                                    <path d="M48.6394444,7.98359259 L47.6405556,7.98359259 L47.5879259,7.17051852 L47.5567778,7.17051852 C47.2377778,7.78918519 46.6942963,8.09851852 45.9306296,8.09851852 C45.3205556,8.09851852 44.8125185,7.859 44.4097407,7.37996296 C44.006963,6.90092593 43.8061111,6.27903704 43.8061111,5.51537037 C43.8061111,4.69585185 44.0241481,4.03207407 44.4623704,3.52511111 C44.8866296,3.05251852 45.4064815,2.81622222 46.0251481,2.81622222 C46.705037,2.81622222 47.1808519,3.045 47.4515185,3.50362963 L47.473,3.50362963 L47.473,0.597185185 L48.5997037,0.597185185 L48.5997037,6.61951852 C48.5997037,7.11251852 48.6125926,7.56685185 48.6394444,7.98359259 Z M47.473,5.84833333 L47.473,5.00411111 C47.473,4.85803704 47.4622593,4.73988889 47.4418519,4.64966667 C47.3784815,4.379 47.2420741,4.1512963 47.0347778,3.96762963 C46.8253333,3.78396296 46.5729259,3.69159259 46.2818519,3.69159259 C45.8618889,3.69159259 45.5332222,3.85807407 45.2915556,4.19211111 C45.052037,4.52614815 44.9306667,4.95255556 44.9306667,5.47348148 C44.9306667,5.974 45.0455926,6.38 45.2765185,6.69255556 C45.5203333,7.02551852 45.849,7.192 46.2603704,7.192 C46.6298519,7.192 46.9252222,7.05344444 47.1497037,6.77525926 C47.3666667,6.51855556 47.473,6.20922222 47.473,5.84833333 Z" id="Shape" fill-rule="nonzero"></path>
                                    <path d="M58.2663704,5.41011111 C58.2663704,6.18881481 58.044037,6.82681481 57.5993704,7.32733333 C57.1332222,7.84181481 56.5167037,8.09851852 55.7444444,8.09851852 C55.0022593,8.09851852 54.4104444,7.85255556 53.9679259,7.35848148 C53.5275556,6.86548148 53.3073704,6.24359259 53.3073704,5.49388889 C53.3073704,4.70981481 53.534,4.06644444 53.9894074,3.567 C54.4448148,3.06755556 55.057037,2.8172963 55.8292963,2.8172963 C56.5714815,2.8172963 57.1697407,3.06325926 57.6208519,3.55625926 C58.0504815,4.0352963 58.2663704,4.65396296 58.2663704,5.41011111 Z M57.0999259,5.44662963 C57.0999259,4.97940741 56.998963,4.57877778 56.7981111,4.24474074 C56.5607407,3.84088889 56.2256296,3.63896296 55.7874074,3.63896296 C55.3362963,3.63896296 54.9925926,3.84088889 54.7552222,4.24474074 C54.5532963,4.57877778 54.4534074,4.98585185 54.4534074,5.46703704 C54.4534074,5.93425926 54.5543704,6.33488889 54.7552222,6.66892593 C54.999037,7.07277778 55.3384444,7.2747037 55.7766667,7.2747037 C56.2062963,7.2747037 56.5446296,7.06955556 56.7873704,6.65818519 C56.9946667,6.3177037 57.0999259,5.91385185 57.0999259,5.44662963 Z" id="Shape" fill-rule="nonzero"></path>
                                    <path d="M64.3187778,7.98359259 L63.1942222,7.98359259 L63.1942222,5.08359259 C63.1942222,4.18996296 62.8548148,3.74314815 62.1727778,3.74314815 C61.8387407,3.74314815 61.5691481,3.86559259 61.3607778,4.11155556 C61.1524074,4.35751852 61.0482222,4.64751852 61.0482222,4.97940741 L61.0482222,7.98251852 L59.9215185,7.98251852 L59.9215185,4.36718519 C59.9215185,3.92251852 59.9086296,3.44025926 59.8817778,2.91825926 L60.8699259,2.91825926 L60.9225556,3.70985185 L60.9537037,3.70985185 C61.0858148,3.46388889 61.2812963,3.26088889 61.5369259,3.0987037 C61.843037,2.90966667 62.1835185,2.81407407 62.5583704,2.81407407 C63.0298889,2.81407407 63.423,2.96659259 63.7355556,3.2727037 C64.1254444,3.64755556 64.3187778,4.20714815 64.3187778,4.95040741 L64.3187778,7.98359259 L64.3187778,7.98359259 Z" id="Path"></path>
                                    <path d="M71.8942222,3.76355556 L70.6547407,3.76355556 L70.6547407,6.22318519 C70.6547407,6.8482963 70.8749259,7.16085185 71.311,7.16085185 C71.5129259,7.16085185 71.6804815,7.14366667 71.8125926,7.10822222 L71.8415926,7.96211111 C71.6192593,8.04588889 71.3271111,8.08777778 70.9672963,8.08777778 C70.5226296,8.08777778 70.1767778,7.95244444 69.9265185,7.68177778 C69.6751852,7.41111111 69.5505926,6.9557037 69.5505926,6.31662963 L69.5505926,3.76355556 L68.8105556,3.76355556 L68.8105556,2.92040741 L69.5505926,2.92040741 L69.5505926,1.99240741 L70.6536667,1.65944444 L70.6536667,2.91933333 L71.8931481,2.91933333 L71.8931481,3.76355556 L71.8942222,3.76355556 Z" id="Path"></path>
                                    <path d="M77.8531852,7.98359259 L76.7264815,7.98359259 L76.7264815,5.10507407 C76.7264815,4.19748148 76.3870741,3.74314815 75.7071852,3.74314815 C75.1851852,3.74314815 74.8285926,4.0062963 74.6331111,4.53259259 C74.5998148,4.64322222 74.5804815,4.77855556 74.5804815,4.93751852 L74.5804815,7.98251852 L73.4559259,7.98251852 L73.4559259,0.597185185 L74.5804815,0.597185185 L74.5804815,3.64862963 L74.601963,3.64862963 C74.9564074,3.09333333 75.4644444,2.81622222 76.1228519,2.81622222 C76.589,2.81622222 76.9745926,2.96874074 77.2807037,3.27485185 C77.662,3.65614815 77.8531852,4.22325926 77.8531852,4.97296296 L77.8531852,7.98359259 L77.8531852,7.98359259 Z" id="Path"></path>
                                    <path d="M84.0001111,5.21248148 C84.0001111,5.41440741 83.9850741,5.58411111 83.9582222,5.72266667 L80.5824074,5.72266667 C80.5974444,6.22318519 80.7585556,6.60448148 81.0711111,6.8687037 C81.3568148,7.105 81.7252222,7.22314815 82.1763333,7.22314815 C82.6757778,7.22314815 83.1311852,7.14366667 83.5414815,6.98362963 L83.7176296,7.76555556 C83.2375185,7.97392593 82.6725556,8.07811111 82.0184444,8.07811111 C81.2343704,8.07811111 80.6167778,7.84718519 80.169963,7.38533333 C79.721,6.92348148 79.4986667,6.30374074 79.4986667,5.52611111 C79.4986667,4.76244444 79.705963,4.12659259 80.1237778,3.61962963 C80.5598519,3.0782963 81.1495185,2.80762963 81.8938519,2.80762963 C82.6220741,2.80762963 83.1752222,3.0782963 83.549,3.61962963 C83.8508148,4.04925926 84.0001111,4.58092593 84.0001111,5.21248148 Z M82.926037,4.92140741 C82.9346296,4.58737037 82.8605185,4.29951852 82.708,4.05677778 C82.5125185,3.74422222 82.215,3.58740741 81.8122222,3.58740741 C81.4448889,3.58740741 81.1452222,3.73992593 80.9164444,4.04603704 C80.7295556,4.28985185 80.6189259,4.58092593 80.5824074,4.92140741 L82.926037,4.92140741 Z" id="Shape" fill-rule="nonzero"></path>
                                </g>
                            </g>
                        </g>
                    </g>
                </g>
            </g>
        </g>
    </g>
</svg>