<?xml version="1.0" encoding="UTF-8"?>
<svg width="68px" height="44px" viewBox="0 0 68 44" version="1.1" xmlns="http://www.w3.org/2000/svg" xmlns:xlink="http://www.w3.org/1999/xlink">
    <!-- Generator: sketchtool 52.5 (67469) - http://www.bohemiancoding.com/sketch -->
    <title>9706AA53-8AFC-4D89-8AD3-5805AA075C10</title>
    <desc>Created with sketchtool.</desc>
    <g id="Welcome" stroke="none" stroke-width="1" fill="none" fill-rule="evenodd">
        <g id="home-copy-10" transform="translate(-1231.000000, -2796.000000)">
            <rect id="Rectangle" fill="#F8F8F8" fill-rule="nonzero" x="0" y="25" width="1444" height="7151"></rect>
            <g id="footer" transform="translate(-6.594341, 2334.544596)">
                <rect id="Rectangle" fill="#FCFCFC" fill-rule="nonzero" x="12" y="1.49222584" width="1440" height="520.544171"></rect>
                <g id="Group-23" transform="translate(1238.133496, 462.467487)">
                    <g id="Group-24">
                        <g id="Group-39">
                            <rect id="Rectangle" fill="#F2F2F2" fill-rule="nonzero" x="0" y="0" width="66" height="42" rx="9"></rect>
                            <g id="Mada_Logo-(1)" transform="translate(10.606945, 13.031569)">
                                <rect id="Rectangle" fill="#84B740" x="0" y="8.83672503" width="19.4396407" height="6.47603232"></rect>
                                <rect id="Rectangle" fill="#259BD6" x="0" y="0" width="19.4396407" height="6.48180419"></rect>
                                <path d="M38.8792814,13.9967722 L38.7927034,14.0140878 C38.4925665,14.0718064 38.382901,14.0948939 38.1635702,14.0948939 C37.6556461,14.0948939 37.0553721,13.83516 37.0553721,12.6115246 C37.0553721,11.9823914 37.1592657,11.145471 38.1058515,11.145471 L38.1116234,11.145471 C38.2732356,11.1570147 38.4579353,11.1743303 38.8042472,11.2782239 L38.8792814,11.3013113 L38.8792814,13.9967722 Z M39.0351218,7.89591107 L38.8792814,7.92477039 L38.8792814,10.1873414 L38.7407567,10.1469383 L38.7003536,10.1353946 C38.5445132,10.0892197 38.1866576,9.98532613 37.8403457,9.98532613 C35.9471741,9.98532613 35.5489154,11.4167486 35.5489154,12.6172965 C35.5489154,14.262278 36.4724138,15.2088638 38.0827641,15.2088638 C38.7638441,15.2088638 39.2659964,15.1396014 39.7739205,14.9722173 C40.2414415,14.8221489 40.4088256,14.6085899 40.4088256,14.1526125 L40.4088256,7.65926461 C39.9586201,7.74007072 39.4910991,7.82087683 39.0351218,7.89591107 Z" id="Shape" fill="#27292D" fill-rule="nonzero"></path>
                                <path d="M44.5068496,14.0371752 L44.4260435,14.0602627 L44.1374503,14.1352969 C43.8661726,14.2045593 43.6237543,14.2449624 43.4390546,14.2449624 C42.994621,14.2449624 42.7291152,14.0256315 42.7291152,13.6504603 C42.7291152,13.408042 42.8387807,12.9982396 43.5660356,12.9982396 L44.5068496,12.9982396 L44.5068496,14.0371752 Z M43.8430852,9.95646681 C43.2601268,9.95646681 42.6598529,10.0603604 41.9152823,10.291235 L41.4304457,10.4355316 L41.5920579,11.5321859 L42.0653508,11.3763456 C42.5617312,11.2147333 43.1793207,11.1108398 43.6410699,11.1108398 C43.848857,11.1108398 44.4837621,11.1108398 44.4837621,11.7976917 L44.4837621,12.0978287 L43.6006668,12.0978287 C41.9903165,12.0978287 41.245746,12.6115246 41.245746,13.7139508 C41.245746,14.6547648 41.9325979,15.2204075 43.0869709,15.2204075 C43.4448265,15.2204075 43.9412069,15.1511451 44.3683248,15.0472516 L44.3914123,15.0414797 L44.4144998,15.0472516 L44.5587964,15.070339 C45.0090018,15.1511451 45.4765229,15.2319513 45.9325002,15.3185292 L45.9325002,11.7168856 C45.9325002,10.5509689 45.2283327,9.95646681 43.8430852,9.95646681 Z" id="Shape" fill="#27292D" fill-rule="nonzero"></path>
                                <path d="M33.2921163,14.0371752 L33.2113102,14.0602627 L32.9227169,14.1352969 C32.6514393,14.2045593 32.4147928,14.2449624 32.2243213,14.2449624 C31.7798877,14.2449624 31.5143819,14.0256315 31.5143819,13.6504603 C31.5143819,13.408042 31.6240473,12.9982396 32.3455304,12.9982396 L33.2863444,12.9982396 L33.2921163,14.0371752 Z M32.6341237,9.95646681 C32.0453935,9.95646681 31.4508914,10.0603604 30.7063208,10.291235 L30.2214842,10.4355316 L30.3830964,11.5321859 L30.8563893,11.3763456 C31.3527697,11.2147333 31.9703592,11.1108398 32.4321084,11.1108398 C32.6398955,11.1108398 33.2748007,11.1108398 33.2748007,11.7976917 L33.2748007,12.0978287 L32.3917054,12.0978287 C30.7813551,12.0978287 30.0310126,12.6115246 30.0310126,13.7139508 C30.0310126,14.6547648 30.7178646,15.2204075 31.8780094,15.2204075 C32.235865,15.2204075 32.7322454,15.1511451 33.1593634,15.0472516 L33.1824508,15.0414797 L33.2055383,15.0472516 L33.344063,15.070339 C33.8000404,15.1511451 34.2617896,15.2319513 34.7178021,15.3243011 L34.7177669,11.7226574 C34.7235387,10.545197 34.0193712,9.95646681 32.6341237,9.95646681 Z" id="Shape" fill="#27292D" fill-rule="nonzero"></path>
                                <path d="M27.2143426,9.96801054 C26.4813158,9.96801054 25.87527,10.2104289 25.6501672,10.3143224 L25.5924486,10.3431818 L25.5405018,10.3027787 C25.2288211,10.077676 24.7728438,9.96223867 24.1379387,9.96223867 C23.5780678,9.96223867 23.0528281,10.0430448 22.4814135,10.2104289 C21.990805,10.3604973 21.8003334,10.5971438 21.8003334,11.0415774 L21.8003334,15.156917 L23.3356495,15.156917 L23.3356495,11.3532581 L23.4106837,11.3301706 C23.7223644,11.2262771 23.9070641,11.2089615 24.0859919,11.2089615 C24.5304255,11.2089615 24.7555282,11.4456079 24.7555282,11.9073571 L24.7555282,15.1626889 L26.2677568,15.1626889 L26.2677568,11.8438666 C26.2677568,11.6476232 26.2273537,11.5321859 26.2215819,11.5090984 L26.1696351,11.4109767 L26.2735286,11.3648018 C26.5044032,11.2609083 26.7583653,11.2089615 27.0238711,11.2089615 C27.3297799,11.2089615 27.6934074,11.3301706 27.6934074,11.9073571 L27.6934074,15.1626889 L29.1998641,15.1626889 L29.1998641,11.7572886 C29.1998641,10.5509689 28.5534152,9.96801054 27.2143426,9.96801054" id="Path" fill="#27292D"></path>
                                <path d="M43.3755641,4.22500505 C43.1504614,4.22500505 42.7752902,4.20191759 42.4809251,4.14419894 L42.3943471,4.12688334 L42.3943471,1.90471539 C42.3943471,1.72001572 42.3597159,1.60457842 42.353944,1.58726282 L42.3077691,1.49491299 L42.4058908,1.45450993 C42.4289783,1.4429662 42.4520657,1.43719434 42.4809251,1.42565061 L42.4982406,1.41410688 C42.5328718,1.40256315 42.567503,1.39101942 42.6021342,1.37947569 C42.6194498,1.37370383 42.6309935,1.36793196 42.6425373,1.36793196 C42.9830773,1.27558212 43.294758,1.28712585 43.4332827,1.27558212 L43.4390546,1.27558212 C44.3798686,1.27558212 44.489534,2.11250252 44.489534,2.74163579 C44.4837621,3.96527113 43.8777163,4.22500505 43.3755641,4.22500505 M43.3697922,0 C43.3582485,0 43.3409329,0 43.3293892,0 C42.4462939,0 41.5401111,0.242418322 41.2168867,0.715711237 C41.0437307,0.94658583 40.945609,1.23517907 40.9398371,1.5757191 L40.9398371,3.86714943 C40.9398371,4.06339283 40.8994341,4.13842707 40.8936622,4.15574267 L40.8417154,4.25386437 L38.0539047,4.25386437 L38.0539047,2.66082968 L38.0481329,2.66082968 C38.0135017,0.981217019 37.0207409,0.0577186482 35.5835466,0.0577186482 L35.4161625,0.0577186482 L34.1809834,0.0577186482 C34.1232648,0.46752105 34.0770899,0.756114291 34.0193712,1.16591669 L35.4161625,1.16591669 C36.1491893,1.16591669 36.5359043,1.78927809 36.5359043,2.74740765 L36.5359043,4.35198607 L36.4377826,4.30003929 C36.420467,4.29426742 36.2992578,4.25386437 36.1087863,4.25386437 L33.6961468,4.25386437 C33.6499719,4.55977321 33.5922532,4.95803188 33.5287627,5.35629055 L40.945609,5.35629055 C41.1995711,5.30434377 41.4939362,5.25816885 41.7478982,5.21776579 C42.1230694,5.40246547 42.8214651,5.50058717 43.3005299,5.50058717 C44.9108801,5.50058717 45.9555877,4.42124845 45.9555877,2.75895138 C45.9498158,1.11396991 44.9397395,0.0346311889 43.3697922,0" id="Shape" fill="#27292D" fill-rule="nonzero"></path>
                                <path d="M30.3657808,6.03159873 L30.4350432,6.03159873 C32.0453935,6.03159873 32.7957359,5.50058717 32.7957359,4.19037386 C32.7957359,3.24955989 32.108884,2.49921747 30.954511,2.49921747 L29.4711418,2.49921747 C29.0267082,2.49921747 28.7612024,2.24525541 28.7612024,1.81813742 C28.7612024,1.52954418 28.8708678,1.17168856 29.5981228,1.17168856 L32.8419108,1.17168856 C32.9111732,0.750342426 32.9458044,0.484836645 33.0092949,0.063490513 L29.6385258,0.063490513 C28.0685786,0.063490513 27.2778331,0.721483102 27.2778331,1.81813742 C27.2778331,2.903248 27.964685,3.46889076 29.119058,3.46889076 L30.6024273,3.46889076 C31.0468609,3.46889076 31.3123666,3.82097451 31.3123666,4.19037386 C31.3123666,4.43279218 31.2027012,4.93494442 30.4812181,4.93494442 L30.2330279,4.93494442 L25.4827832,4.92340069 L24.6170034,4.92340069 C23.8839766,4.92340069 23.3702806,4.50782642 23.3702806,3.543925 L23.3702806,2.88016054 C23.3702806,1.87585607 23.7685393,1.25249467 24.6170034,1.25249467 L26.0253385,1.25249467 C26.088829,0.825376669 26.129232,0.554099022 26.1869507,0.150068485 L24.4323038,0.150068485 L24.2649197,0.150068485 C22.8277254,0.150068485 21.8349646,1.11396991 21.8003334,2.79358257 L21.8003334,2.85707308 L21.8003334,3.543925 C21.8349646,5.22353766 22.8277254,6.02582687 24.2649197,6.02582687 L24.4323038,6.02582687 L25.6674828,6.02582687 L28.2417345,6.03159873 L29.7770506,6.03159873 L30.3657808,6.03159873 Z" id="Path" fill="#27292D"></path>
                            </g>
                        </g>
                    </g>
                </g>
                <g id="icons8-twitter-(2)-copy" transform="translate(1271.311477, 455.615811)">
                    <path d="M23,2.20491513 C22.1389979,2.58675154 21.2742515,2.875 20.3159182,2.97233121 C21.2742515,2.39583333 22.0416667,1.4375 22.4235031,0.381836417 C21.4651698,0.958333333 20.5068364,1.34016975 19.4549151,1.53483121 C18.4965818,0.576497875 17.25,0 15.9098312,0 C13.3193364,0 11.2117515,2.10758488 11.2117515,4.69433642 C11.2117515,5.07991513 11.2117515,5.46175154 11.3090818,5.75 C7.37841821,5.55908179 3.93066454,3.73600308 1.62841821,0.861003083 C1.14925154,1.53483121 0.958333333,2.39583333 0.958333333,3.25683642 C0.958333333,4.88899788 1.81933642,6.32649788 3.06591821,7.1875 C2.29850308,7.09016975 1.53483121,6.89925154 0.958333333,6.61100308 C0.958333333,6.61100308 0.958333333,6.61100308 0.958333333,6.70833333 C0.958333333,9.00683642 2.58675154,10.9235031 4.69433642,11.3090818 C4.3125,11.4026698 3.93066454,11.5 3.45149788,11.5 C3.16324846,11.5 2.875,11.5 2.58675154,11.4026698 C3.16324846,13.3193364 4.88899788,14.6632485 6.99658179,14.6632485 C5.36816454,15.9098312 3.35416667,16.6735031 1.14925154,16.6735031 C0.767415125,16.6735031 0.381836417,16.6735031 0,16.5799151 C2.10758488,17.9200849 4.60074846,18.6875 7.1875,18.6875 C15.9098312,18.6875 20.6041667,11.5 20.6041667,5.27083333 C20.6041667,5.07991513 20.6041667,4.88899788 20.6041667,4.69433642 C21.5625,4.02425154 22.3299151,3.16324846 23,2.20491513" id="Path"></path>
                </g>
            </g>
        </g>
    </g>
</svg>