<?xml version="1.0" encoding="UTF-8"?>
<svg width="68px" height="44px" viewBox="0 0 68 44" version="1.1" xmlns="http://www.w3.org/2000/svg" xmlns:xlink="http://www.w3.org/1999/xlink">
    <!-- Generator: sketchtool 52.5 (67469) - http://www.bohemiancoding.com/sketch -->
    <title>BC062FE6-4013-4E65-9CA7-E57E32FBC21C</title>
    <desc>Created with sketchtool.</desc>
    <g id="Welcome" stroke="none" stroke-width="1" fill="none" fill-rule="evenodd">
        <g id="home-copy-10" transform="translate(-1148.000000, -2796.000000)">
            <g id="footer" transform="translate(-6.594341, 2334.544596)">
                <g id="Group-25" transform="translate(1155.334021, 462.467487)">
                    <g id="Group-40">
                        <rect id="Rectangle" fill="#F2F2F2" fill-rule="nonzero" x="0" y="0" width="66" height="42" rx="9"></rect>
                        <g id="Mastercard-logo-(1)-2" transform="translate(16.000000, 7.000000)">
                            <g id="Mastercard-logo-(1)" transform="translate(0.124259, 0.325328)">
                                <g id="Group" transform="translate(17.501173, 24.731772) scale(-1, 1) rotate(-180.000000) translate(-17.501173, -24.731772) translate(2.001173, 22.231772)" fill="#231F20" fill-rule="nonzero">
                                    <path d="M30.6701556,0.638961576 L30.6701556,0.573148534 L30.730857,0.573148534 C30.7442752,0.573148534 30.7557765,0.576343341 30.764083,0.581455034 C30.7717505,0.586566727 30.7762233,0.595512189 30.7762233,0.606374535 C30.7762233,0.617236882 30.7717505,0.625543383 30.764083,0.630655075 C30.7557765,0.63640573 30.7442752,0.638961576 30.730857,0.638961576 L30.6701556,0.638961576 Z M30.731496,0.684966809 C30.7628051,0.684966809 30.7870856,0.677938232 30.8043376,0.663881077 C30.8215895,0.649823923 30.829896,0.630655075 30.829896,0.606374535 C30.829896,0.585927765 30.8235064,0.569314764 30.8094493,0.555896571 C30.7960311,0.543117339 30.7768622,0.534810839 30.7513038,0.531616031 L30.8318129,0.438966603 L30.7691947,0.438966603 L30.6944362,0.53097707 L30.6701556,0.53097707 L30.6701556,0.438966603 L30.6177608,0.438966603 L30.6177608,0.684966809 L30.731496,0.684966809 Z M30.7155219,0.353984713 C30.7442752,0.353984713 30.7711116,0.359735367 30.7953921,0.370597714 C30.8203116,0.381460061 30.8420363,0.396156177 30.8605662,0.414686063 C30.8790961,0.433215948 30.8937922,0.454940642 30.9046545,0.480499105 C30.9148779,0.505418606 30.9206286,0.532254993 30.9206286,0.561008264 C30.9206286,0.589761534 30.9148779,0.616597921 30.9046545,0.641517422 C30.8937922,0.666436924 30.8790961,0.688800579 30.8605662,0.707330464 C30.8420363,0.72586035 30.8203116,0.740556466 30.7953921,0.751418813 C30.7711116,0.761642198 30.7442752,0.766753891 30.7155219,0.766753891 C30.6867686,0.766753891 30.6592933,0.761642198 30.6343738,0.751418813 C30.6088153,0.740556466 30.5864517,0.72586035 30.5679218,0.707330464 C30.5493919,0.688800579 30.5346958,0.666436924 30.5244724,0.641517422 C30.5136101,0.616597921 30.5084984,0.589761534 30.5084984,0.561008264 C30.5084984,0.532254993 30.5136101,0.505418606 30.5244724,0.480499105 C30.5346958,0.454940642 30.5493919,0.433215948 30.5679218,0.414686063 C30.5864517,0.396156177 30.6088153,0.381460061 30.6343738,0.370597714 C30.6592933,0.359735367 30.6867686,0.353984713 30.7155219,0.353984713 Z M30.7155219,0.826177318 C30.7532206,0.826177318 30.7877246,0.81914874 30.8209506,0.805091586 C30.8535376,0.791673392 30.8816519,0.772504545 30.9065714,0.748224005 C30.930852,0.724582427 30.9500208,0.696468118 30.964078,0.663881077 C30.9781351,0.631932998 30.9851637,0.597429073 30.9851637,0.561008264 C30.9851637,0.524587454 30.9781351,0.490083529 30.964078,0.45813545 C30.9500208,0.426187371 30.930852,0.398073062 30.9065714,0.373792522 C30.8816519,0.350150944 30.8535376,0.330982096 30.8209506,0.316924942 C30.7877246,0.302867787 30.7532206,0.29583921 30.7155219,0.29583921 C30.6771842,0.29583921 30.6420413,0.302867787 30.6088153,0.316924942 C30.5755893,0.330982096 30.5468361,0.350150944 30.5225555,0.373792522 C30.498275,0.398073062 30.4791061,0.426187371 30.465049,0.45813545 C30.4509918,0.490083529 30.4439632,0.524587454 30.4439632,0.561008264 C30.4439632,0.597429073 30.4509918,0.631932998 30.465049,0.663881077 C30.4791061,0.696468118 30.498275,0.724582427 30.5225555,0.748224005 C30.5468361,0.772504545 30.5755893,0.791673392 30.6088153,0.805091586 C30.6420413,0.81914874 30.6771842,0.826177318 30.7155219,0.826177318 Z M5.82093996,1.77375733 C5.82093996,2.24275513 6.12828047,2.62804896 6.63050427,2.62804896 C7.11036442,2.62804896 7.43431793,2.25936813 7.43431793,1.77375733 C7.43431793,1.28814654 7.11036442,0.919465708 6.63050427,0.919465708 C6.12828047,0.919465708 5.82093996,1.30475954 5.82093996,1.77375733 Z M7.98126904,1.77375733 L7.98126904,3.1079091 L7.40109193,3.1079091 L7.40109193,2.78395559 C7.217071,3.02420514 6.93784479,3.17500007 6.55830161,3.17500007 C5.81007761,3.17500007 5.22351088,2.58843334 5.22351088,1.77375733 C5.22351088,0.958442364 5.81007761,0.372514599 6.55830161,0.372514599 C6.93784479,0.372514599 7.217071,0.523309531 7.40109193,0.763559083 L7.40109193,0.439605564 L7.98126904,0.439605564 L7.98126904,1.77375733 Z M27.587166,1.77375733 C27.587166,2.24275513 27.8945066,2.62804896 28.3967304,2.62804896 C28.8772295,2.62804896 29.200544,2.25936813 29.200544,1.77375733 C29.200544,1.28814654 28.8772295,0.919465708 28.3967304,0.919465708 C27.8945066,0.919465708 27.587166,1.30475954 27.587166,1.77375733 Z M29.7481341,1.77375733 L29.7481341,4.17944767 L29.167318,4.17944767 L29.167318,2.78395559 C28.9832971,3.02420514 28.7040709,3.17500007 28.3245277,3.17500007 C27.5763037,3.17500007 26.989737,2.58843334 26.989737,1.77375733 C26.989737,0.958442364 27.5763037,0.372514599 28.3245277,0.372514599 C28.7040709,0.372514599 28.9832971,0.523309531 29.167318,0.763559083 L29.167318,0.439605564 L29.7481341,0.439605564 L29.7481341,1.77375733 Z M15.183005,2.65552431 C15.5567975,2.65552431 15.797047,2.42102541 15.8583874,2.00825623 L14.4737576,2.00825623 C14.5357369,2.39355006 14.7695968,2.65552431 15.183005,2.65552431 Z M15.1945063,3.17500007 C14.4124173,3.17500007 13.8654662,2.60568531 13.8654662,1.77375733 C13.8654662,0.925216362 14.434781,0.372514599 15.2334829,0.372514599 C15.6353898,0.372514599 16.0034316,0.472831566 16.3273851,0.746307121 L16.0430472,1.17632826 C15.8194107,0.998057981 15.5344338,0.897102052 15.2667089,0.897102052 C14.8929164,0.897102052 14.5523499,1.07026064 14.4686459,1.55075974 L16.4500658,1.55075974 C16.4558164,1.6229624 16.4615671,1.69580402 16.4615671,1.77375733 C16.4558164,2.60568531 15.9420913,3.17500007 15.1945063,3.17500007 Z M22.200081,1.77375733 C22.200081,2.24275513 22.5074215,2.62804896 23.0096453,2.62804896 C23.4895055,2.62804896 23.813459,2.25936813 23.813459,1.77375733 C23.813459,1.28814654 23.4895055,0.919465708 23.0096453,0.919465708 C22.5074215,0.919465708 22.200081,1.30475954 22.200081,1.77375733 Z M24.3604101,1.77375733 L24.3604101,3.1079091 L23.780233,3.1079091 L23.780233,2.78395559 C23.5955731,3.02420514 23.3169858,3.17500007 22.9374426,3.17500007 C22.1892186,3.17500007 21.6026519,2.58843334 21.6026519,1.77375733 C21.6026519,0.958442364 22.1892186,0.372514599 22.9374426,0.372514599 C23.3169858,0.372514599 23.5955731,0.523309531 23.780233,0.763559083 L23.780233,0.439605564 L24.3604101,0.439605564 L24.3604101,1.77375733 Z M18.923486,1.77375733 C18.923486,0.964193018 19.4870501,0.372514599 20.3470924,0.372514599 C20.7489993,0.372514599 21.0167242,0.461969219 21.3068127,0.690717463 L21.0282255,1.15971526 C20.8103396,1.00316967 20.5815913,0.919465708 20.3298405,0.919465708 C19.8665933,0.925216362 19.5260268,1.26003223 19.5260268,1.77375733 C19.5260268,2.28748244 19.8665933,2.62229831 20.3298405,2.62804896 C20.5815913,2.62804896 20.8103396,2.54434499 21.0282255,2.38779941 L21.3068127,2.85679721 C21.0167242,3.08554545 20.7489993,3.17500007 20.3470924,3.17500007 C19.4870501,3.17500007 18.923486,2.58332165 18.923486,1.77375733 Z M26.4038092,3.17500007 C26.0689933,3.17500007 25.8511074,3.01845448 25.7003125,2.78395559 L25.7003125,3.1079091 L25.1252471,3.1079091 L25.1252471,0.439605564 L25.7060632,0.439605564 L25.7060632,1.93541461 C25.7060632,2.37693706 25.8958347,2.62229831 26.2753779,2.62229831 C26.3929469,2.62229831 26.5156275,2.60568531 26.6383081,2.55520734 L26.8172173,3.10215845 C26.6887861,3.15263642 26.5213781,3.17500007 26.4038092,3.17500007 Z M10.8508455,2.89577386 C10.5716193,3.0797948 10.1869644,3.17500007 9.76269392,3.17500007 C9.08667257,3.17500007 8.65153974,2.85104655 8.65153974,2.32070844 C8.65153974,1.88557561 8.97549326,1.61721175 9.57228337,1.53350778 L9.84639788,1.49453113 C10.1646007,1.44980382 10.3147567,1.36609985 10.3147567,1.21530492 C10.3147567,1.00892033 10.1026215,0.891351398 9.7064653,0.891351398 C9.30455847,0.891351398 9.01446991,1.01978268 8.81894767,1.17057761 L8.54547212,0.718831773 C8.86367498,0.484332874 9.26558181,0.372514599 9.70071464,0.372514599 C10.4713023,0.372514599 10.9179364,0.735444774 10.9179364,1.24341923 C10.9179364,1.71241702 10.5665076,1.95777827 9.98569151,2.04148223 L9.71221595,2.08109785 C9.46110405,2.11432385 9.25983116,2.16416286 9.25983116,2.3430721 C9.25983116,2.53859434 9.44960274,2.65552431 9.76780561,2.65552431 C10.1083721,2.65552431 10.4380763,2.52709303 10.5997336,2.42677606 L10.8508455,2.89577386 Z M18.3369193,3.17500007 C18.0021034,3.17500007 17.7842175,3.01845448 17.6340616,2.78395559 L17.6340616,3.1079091 L17.0589962,3.1079091 L17.0589962,0.439605564 L17.6391733,0.439605564 L17.6391733,1.93541461 C17.6391733,2.37693706 17.8289449,2.62229831 18.208488,2.62229831 C18.326057,2.62229831 18.4487376,2.60568531 18.5714182,2.55520734 L18.7503274,3.10215845 C18.6218962,3.15263642 18.4544882,3.17500007 18.3369193,3.17500007 Z M13.3856061,3.1079091 L12.4367481,3.1079091 L12.4367481,3.91747342 L11.8501814,3.91747342 L11.8501814,3.1079091 L11.3089809,3.1079091 L11.3089809,2.577571 L11.8501814,2.577571 L11.8501814,1.36034919 C11.8501814,0.741195428 12.0904309,0.372514599 12.7766757,0.372514599 C13.0284265,0.372514599 13.3185151,0.450467911 13.502536,0.578899188 L13.3351281,1.07601129 C13.1619695,0.975694326 12.9721979,0.925216362 12.821403,0.925216362 C12.5313144,0.925216362 12.4367481,1.1041256 12.4367481,1.3718505 L12.4367481,2.577571 L13.3856061,2.577571 L13.3856061,3.1079091 Z M4.71042474,0.439605564 L4.71042474,2.11432385 C4.71042474,2.74497893 4.30851791,3.16924942 3.66061087,3.17500007 C3.32004435,3.18075072 2.96861548,3.0746831 2.72261527,2.70025162 C2.53859434,2.99609083 2.24850579,3.17500007 1.8408483,3.17500007 C1.55587144,3.17500007 1.27728419,3.0912961 1.05939829,2.77884389 L1.05939829,3.1079091 L0.47858222,3.1079091 L0.47858222,0.439605564 L1.06450999,0.439605564 L1.06450999,1.91880161 C1.06450999,2.38204875 1.32137254,2.62804896 1.71816768,2.62804896 C2.10346151,2.62804896 2.29834479,2.37693706 2.29834479,1.92455227 L2.29834479,0.439605564 L2.88491151,0.439605564 L2.88491151,1.91880161 C2.88491151,2.38204875 3.15263642,2.62804896 3.53793025,2.62804896 C3.93408642,2.62804896 4.12385801,2.37693706 4.12385801,1.92455227 L4.12385801,0.439605564 L4.71042474,0.439605564 Z" id="Shape"></path>
                                </g>
                                <g id="Group" transform="translate(32.751224, 17.901076) scale(-1, 1) rotate(-180.000000) translate(-32.751224, -17.901076) translate(31.751224, 17.401076)" fill="#F79410" fill-rule="nonzero">
                                    <path d="M1.43129906,-2.77555756e-16 L1.43129906,0.733113849 L1.31129906,0.733113849 L1.17243114,0.229548763 L1.03431793,0.733113849 L0.913563215,0.733113849 L0.913563215,-2.77555756e-16 L0.998846233,-2.77555756e-16 L0.998846233,0.552839952 L1.12865755,0.0757150369 L1.21695944,0.0757150369 L1.34677076,0.554041778 L1.34677076,-2.77555756e-16 L1.43129906,-2.77555756e-16 Z M0.66978963,-8.32667268e-17 L0.66978963,0.608123947 L0.823751894,0.608123947 L0.823751894,0.731912023 L0.431299064,0.731912023 L0.431299064,0.608123947 L0.585261328,0.608123947 L0.585261328,-8.32667268e-17 L0.66978963,-8.32667268e-17 Z" id="Shape"></path>
                                </g>
                                <polygon id="Path" fill="#FF5F00" points="21.4767219 19.5949034 12.6835883 19.5949034 12.6835883 3.7921057 21.4767219 3.7921057"></polygon>
                                <g id="Group" transform="translate(8.967665, 11.415612) scale(-1, 1) rotate(-180.000000) translate(-8.967665, -11.415612) translate(0.467665, 0.915612)" fill="#EB001B">
                                    <path d="M12.7792315,10.2233852 C12.7792315,13.4290554 14.2801523,16.2845747 16.6174737,18.1247841 C14.9082515,19.4704371 12.7511172,20.2736118 10.4067672,20.2736118 C4.85674694,20.2736118 0.357818482,15.7740444 0.357818482,10.2233852 C0.357818482,4.672726 4.85674694,0.173158587 10.4067672,0.173158587 C12.7511172,0.173158587 14.9082515,0.976333288 16.6174737,2.32198637 C14.2801523,4.1621957 12.7792315,7.01771499 12.7792315,10.2233852" id="Path"></path>
                                </g>
                                <g id="Group" transform="translate(25.222848, 11.415612) scale(-1, 1) rotate(-180.000000) translate(-25.222848, -11.415612) translate(16.722848, 0.915612)" fill="#F79E1B">
                                    <path d="M16.613001,10.2233852 C16.613001,4.672726 12.1140725,0.173158587 6.56405227,0.173158587 C4.21970225,0.173158587 2.06256797,0.976333288 0.35270679,2.32198637 C2.6906672,4.1621957 4.19158794,7.01771499 4.19158794,10.2233852 C4.19158794,13.4290554 2.6906672,16.2845747 0.35270679,18.1247841 C2.06256797,19.4704371 4.21970225,20.2736118 6.56405227,20.2736118 C12.1140725,20.2736118 16.613001,15.7740444 16.613001,10.2233852" id="Path"></path>
                                </g>
                            </g>
                        </g>
                    </g>
                </g>
            </g>
        </g>
    </g>
</svg>