<?xml version="1.0" encoding="UTF-8"?>
<svg width="144px" height="43px" viewBox="0 0 144 43" version="1.1" xmlns="http://www.w3.org/2000/svg" xmlns:xlink="http://www.w3.org/1999/xlink">
    <title>AF5DD020-782E-4380-A311-8269A91B896F</title>
    <defs>
        <linearGradient x1="61.2978126%" y1="4.9604069%" x2="25.9507285%" y2="71.909245%" id="linearGradient-1">
            <stop stop-color="#00A0FF" offset="0%"></stop>
            <stop stop-color="#00A1FF" offset="0.66%"></stop>
            <stop stop-color="#00BEFF" offset="26.01%"></stop>
            <stop stop-color="#00D2FF" offset="51.22%"></stop>
            <stop stop-color="#00DFFF" offset="76.04%"></stop>
            <stop stop-color="#00E3FF" offset="100%"></stop>
        </linearGradient>
        <linearGradient x1="107.585647%" y1="50.0163647%" x2="-130.492257%" y2="50.0163647%" id="linearGradient-2">
            <stop stop-color="#FFE000" offset="0%"></stop>
            <stop stop-color="#FFBD00" offset="40.87%"></stop>
            <stop stop-color="#FFA500" offset="77.54%"></stop>
            <stop stop-color="#FF9C00" offset="100%"></stop>
        </linearGradient>
        <linearGradient x1="86.237735%" y1="89.3730889%" x2="-50.1313759%" y2="192.045808%" id="linearGradient-3">
            <stop stop-color="#FF3A44" offset="0%"></stop>
            <stop stop-color="#C31162" offset="100%"></stop>
        </linearGradient>
        <linearGradient x1="-18.8012883%" y1="-68.399562%" x2="42.0936259%" y2="-22.5671594%" id="linearGradient-4">
            <stop stop-color="#32A071" offset="0%"></stop>
            <stop stop-color="#2DA771" offset="6.85%"></stop>
            <stop stop-color="#15CF74" offset="47.62%"></stop>
            <stop stop-color="#06E775" offset="80.09%"></stop>
            <stop stop-color="#00F076" offset="100%"></stop>
        </linearGradient>
    </defs>
    <g id="Web" stroke="none" stroke-width="1" fill="none" fill-rule="evenodd">
        <g id="Nav_00" transform="translate(-246.000000, -1095.000000)">
            <g id="footer" transform="translate(-20.096874, 978.239928)">
                <g id="section" transform="translate(264.648717, 66.540231)">
                    <g id="Group-29" transform="translate(0.000000, 0.000000)">
                        <g id="Get_it_on_Google_play-2" transform="translate(0.000000, 49.698304)">
                            <g id="Get_it_on_Google_play" transform="translate(0.888799, 0.966301)">
                                <g id="g10" transform="translate(72.342674, 21.593936) scale(-1, 1) rotate(-180.000000) translate(-72.342674, -21.593936) translate(0.342674, 0.093936)">
                                    <g id="g12" transform="translate(0.926325, 0.000000)">
                                        <path d="M137.32247,0.955939754 L5.30586956,0.955939754 C2.40282453,0.955939754 0.0252055657,3.3058958 0.0252055657,6.17516472 L0.0252055657,37.4905145 C0.0252055657,40.3597835 2.40282453,42.7097395 5.30586956,42.7097395 L137.32247,42.7097395 C140.225515,42.7097395 142.603134,40.3597835 142.603134,37.4905145 L142.603134,6.17516472 C142.603134,3.3058958 140.225515,0.955939754 137.32247,0.955939754 Z" id="path14" fill="#000000"></path>
                                        <path d="M137.32247,41.8733587 C139.767417,41.8733587 141.756907,39.9070157 141.756907,37.4905145 L141.756907,6.17516472 C141.756907,3.75866356 139.767417,1.79232056 137.32247,1.79232056 L5.30586956,1.79232056 C2.86092213,1.79232056 0.871431971,3.75866356 0.871431971,6.17516472 L0.871431971,37.4905145 C0.871431971,39.9070157 2.86092213,41.8733587 5.30586956,41.8733587 L137.32247,41.8733587 L137.32247,41.8733587 Z M137.32247,42.7097395 L5.30586956,42.7097395 C2.40282453,42.7097395 0.0252055657,40.3597835 0.0252055657,37.4905145 L0.0252055657,6.17516472 C0.0252055657,3.3058958 2.40282453,0.955939754 5.30586956,0.955939754 L137.32247,0.955939754 C140.225515,0.955939754 142.603134,3.3058958 142.603134,6.17516472 L142.603134,37.4905145 C142.603134,40.3597835 140.225515,42.7097395 137.32247,42.7097395 Z" id="path16" fill-rule="nonzero"></path>
                                        <g id="g18" transform="translate(47.090684, 32.185708) scale(-1, 1) rotate(-180.000000) translate(-47.090684, -32.185708) translate(43.590684, 28.185708)" fill="#FFFFFF" stroke="#FFFFFF" stroke-width="0.625">
                                            <path d="M6.51369904,4.16885595 C6.51369904,5.04046652 6.24966584,5.73853786 5.72952044,6.25915555 C5.13148524,6.8763289 4.3525873,7.18687278 3.39810728,7.18687278 C2.48587258,7.18687278 1.70697464,6.87110967 1.06801429,6.2487171 C0.427733784,5.61719087 0.108253612,4.84213597 0.108253612,3.91441873 C0.108253612,2.98670149 0.427733784,2.21164658 1.06801429,1.58533958 C1.70697464,0.957727782 2.48587258,0.641964671 3.39810728,0.641964671 C3.85224439,0.641964671 4.28525883,0.734605915 4.69847079,0.906840339 C5.11036258,1.08037957 5.44568475,1.31524469 5.68859529,1.60491168 L5.1367659,2.15553991 C4.71299262,1.66101835 4.13608008,1.41701958 3.39810728,1.41701958 C2.73274362,1.41701958 2.15583108,1.64666548 1.66604949,2.10987169 C1.18154857,2.57438272 0.938638026,3.17589839 0.938638026,3.91441873 C0.938638026,4.65293906 1.18154857,5.25967396 1.66604949,5.72418499 C2.15583108,6.18217198 2.73274362,6.4170371 3.39810728,6.4170371 C4.10439609,6.4170371 4.69847079,6.18217198 5.16712972,5.71896576 C5.47604857,5.41233629 5.65163064,4.98957907 5.69783645,4.44938929 L3.39810728,4.44938929 L3.39810728,3.69521128 L6.46617307,3.69521128 C6.50313771,3.85831206 6.51369904,4.01619361 6.51369904,4.16885595 L6.51369904,4.16885595 Z" id="path20"></path>
                                        </g>
                                        <g id="g22" transform="translate(53.194262, 32.185708) scale(-1, 1) rotate(-180.000000) translate(-53.194262, -32.185708) translate(51.194262, 28.185708)" fill="#FFFFFF" stroke="#FFFFFF" stroke-width="0.625">
                                            <polygon id="path24" points="3.77757288 1.55402423 0.895650504 1.55402423 0.895650504 3.53732972 3.49373719 3.53732972 3.49373719 4.29150773 0.895650504 4.29150773 0.895650504 6.27481322 3.77757288 6.27481322 3.77757288 7.0433441 0.0797879159 7.0433441 0.0797879159 0.785493358 3.77757288 0.785493358"></polygon>
                                        </g>
                                        <g id="g26" transform="translate(57.972178, 32.185708) scale(-1, 1) rotate(-180.000000) translate(-57.972178, -32.185708) translate(55.472178, 28.185708)" fill="#FFFFFF" stroke="#FFFFFF" stroke-width="0.625">
                                            <polygon id="path28" points="2.93472902 7.0433441 2.11886643 7.0433441 2.11886643 1.55402423 0.351164156 1.55402423 0.351164156 0.785493358 4.70375146 0.785493358 4.70375146 1.55402423 2.93472902 1.55402423 2.93472902 7.0433441"></polygon>
                                        </g>
                                        <g id="g30" transform="translate(64.073008, 32.185708) scale(-1, 1) rotate(-180.000000) translate(-64.073008, -32.185708) translate(63.073008, 28.185708)" fill="#FFFFFF" stroke="#FFFFFF" stroke-width="0.625">
                                            <polygon id="path32" points="0.252837533 7.0433441 0.252837533 0.785493358 1.06737996 0.785493358 1.06737996 7.0433441"></polygon>
                                        </g>
                                        <g id="g34" transform="translate(67.213340, 32.185708) scale(-1, 1) rotate(-180.000000) translate(-67.213340, -32.185708) translate(64.713340, 28.185708)" fill="#FFFFFF" stroke="#FFFFFF" stroke-width="0.625">
                                            <polygon id="path36" points="3.03770196 7.0433441 2.22844021 7.0433441 2.22844021 1.55402423 0.454137104 1.55402423 0.454137104 0.785493358 4.81200507 0.785493358 4.81200507 1.55402423 3.03770196 1.55402423"></polygon>
                                        </g>
                                        <g id="g38" transform="translate(75.314170, 32.185708) scale(-1, 1) rotate(-180.000000) translate(-75.314170, -32.185708) translate(71.314170, 28.185708)" fill="#FFFFFF" fill-rule="nonzero" stroke="#FFFFFF" stroke-width="0.625">
                                            <path d="M6.45165124,6.23827865 C5.82721272,6.87110967 5.05359545,7.18687278 4.13079941,7.18687278 C3.20272271,7.18687278 2.42910544,6.87110967 1.80466692,6.23827865 C1.18154857,5.60675242 0.87130956,4.83169752 0.87130956,3.91441873 C0.87130956,2.99713994 1.18154857,2.22208503 1.80466692,1.59055881 C2.42910544,0.957727782 3.20272271,0.641964671 4.13079941,0.641964671 C5.04831478,0.641964671 5.82193206,0.957727782 6.44637058,1.59577803 C7.07476959,2.23252348 7.3850086,3.00235916 7.3850086,3.91441873 C7.3850086,4.83169752 7.07476959,5.60675242 6.45165124,6.23827865 Z M2.40798278,5.71374654 C2.87796188,6.18217198 3.44959376,6.4170371 4.13079941,6.4170371 C4.8067244,6.4170371 5.38363695,6.18217198 5.84833538,5.71374654 C6.31699431,5.2453211 6.55462419,4.64380542 6.55462419,3.91441873 C6.55462419,3.18503204 6.31699431,2.58351636 5.84833538,2.11509092 C5.38363695,1.64666548 4.8067244,1.41180035 4.13079941,1.41180035 C3.44959376,1.41180035 2.87796188,1.64666548 2.40798278,2.11509092 C1.93932385,2.58351636 1.70169397,3.18503204 1.70169397,3.91441873 C1.70169397,4.64380542 1.93932385,5.2453211 2.40798278,5.71374654 L2.40798278,5.71374654 Z" id="path40"></path>
                                        </g>
                                        <g id="g42" transform="translate(82.235166, 32.185708) scale(-1, 1) rotate(-180.000000) translate(-82.235166, -32.185708) translate(79.235166, 28.185708)" fill="#FFFFFF" stroke="#FFFFFF" stroke-width="0.625">
                                            <polygon id="path44" points="0.608596526 7.0433441 0.608596526 0.785493358 1.59872103 0.785493358 4.67734814 5.65242064 4.71299262 5.65242064 4.67734814 4.44938929 4.67734814 0.785493358 5.49189056 0.785493358 5.49189056 7.0433441 4.64170365 7.0433441 1.41785828 1.93633246 1.3822138 1.93633246 1.41785828 3.14458304 1.41785828 7.0433441 0.608596526 7.0433441"></polygon>
                                        </g>
                                        <path d="M71.9848139,20.0035013 C69.504222,20.0035013 67.4777671,18.1376284 67.4777671,15.5632456 C67.4777671,13.0097398 69.504222,11.1242948 71.9848139,11.1242948 C74.4706864,11.1242948 76.4971413,13.0097398 76.4971413,15.5632456 C76.4971413,18.1376284 74.4706864,20.0035013 71.9848139,20.0035013 Z M71.9848139,12.8727352 C70.6237227,12.8727352 69.4527355,13.9831253 69.4527355,15.5632456 C69.4527355,17.1642429 70.6237227,18.2550609 71.9848139,18.2550609 C73.345905,18.2550609 74.5221729,17.1642429 74.5221729,15.5632456 C74.5221729,13.9831253 73.345905,12.8727352 71.9848139,12.8727352 L71.9848139,12.8727352 Z M62.1508973,20.0035013 C59.6650248,20.0035013 57.6438506,18.1376284 57.6438506,15.5632456 C57.6438506,13.0097398 59.6650248,11.1242948 62.1508973,11.1242948 C64.6354497,11.1242948 66.6579441,13.0097398 66.6579441,15.5632456 C66.6579441,18.1376284 64.6354497,20.0035013 62.1508973,20.0035013 Z M62.1508973,12.8727352 C60.788486,12.8727352 59.6135383,13.9831253 59.6135383,15.5632456 C59.6135383,17.1642429 60.788486,18.2550609 62.1508973,18.2550609 C63.5119885,18.2550609 64.6829757,17.1642429 64.6829757,15.5632456 C64.6829757,13.9831253 63.5119885,12.8727352 62.1508973,12.8727352 Z M50.4489459,18.6425884 L50.4489459,16.7558385 L55.0074791,16.7558385 C54.8741423,15.7015551 54.5176975,14.9265002 53.9711488,14.3863104 C53.3057851,13.7339073 52.2694548,13.0097398 50.4489459,13.0097398 C47.6435932,13.0097398 45.4468369,15.2474825 45.4468369,18.0201958 C45.4468369,20.7929091 47.6435932,23.0306518 50.4489459,23.0306518 C51.9658166,23.0306518 53.0694754,22.4447938 53.8840178,21.6853965 L55.229267,23.0149941 C54.0899637,24.0901544 52.5744132,24.9160968 50.4489459,24.9160968 C46.6019822,24.9160968 43.3688957,21.8224012 43.3688957,18.0201958 C43.3688957,14.2179904 46.6019822,11.1242948 50.4489459,11.1242948 C52.5282074,11.1242948 54.0899637,11.7975748 55.3177181,13.0606273 C56.5758363,14.3041076 56.9679256,16.052548 56.9679256,17.4643483 C56.9679256,17.9027632 56.930961,18.3059484 56.8649527,18.6425884 L50.4489459,18.6425884 Z M98.2996827,17.1799006 C97.9287161,18.1728581 96.7841322,20.0035013 94.452719,20.0035013 C92.1424285,20.0035013 90.2189466,18.2041735 90.2189466,15.5632456 C90.2189466,13.0762849 92.122626,11.1242948 94.6745069,11.1242948 C96.7379264,11.1242948 97.9287161,12.3677752 98.4184977,13.0919426 L96.8871051,14.1005578 C96.3762009,13.3620375 95.6804734,12.8727352 94.6745069,12.8727352 C93.6751412,12.8727352 92.9582911,13.3255029 92.4988733,14.2179904 L98.5069488,16.6749406 L98.2996827,17.1799006 L98.2996827,17.1799006 Z M92.1741125,15.7015551 C92.122626,17.4134609 93.5193616,18.2902907 94.5200475,18.2902907 C95.3042261,18.2902907 95.9695897,17.9027632 96.1913776,17.3482206 L92.1741125,15.7015551 L92.1741125,15.7015551 Z M87.2908185,11.3943897 L89.2657868,11.3943897 L89.2657868,24.4424521 L87.2908185,24.4424521 L87.2908185,11.3943897 Z M84.0564118,19.0144582 L83.9904035,19.0144582 C83.5468277,19.533771 82.7006013,20.0035013 81.6286265,20.0035013 C79.3790636,20.0035013 77.322245,18.0515111 77.322245,15.5488928 C77.322245,13.0606273 79.3790636,11.1242948 81.6286265,11.1242948 C82.7006013,11.1242948 83.5468277,11.5979395 83.9904035,12.13291 L84.0564118,12.13291 L84.0564118,11.4961646 C84.0564118,9.79861166 83.1388964,8.8865521 81.6589903,8.8865521 C80.4523586,8.8865521 79.7038245,9.74772422 79.3949056,10.4718917 L77.6773697,9.76338189 C78.1724319,8.58644666 79.4833567,7.13811173 81.6589903,7.13811173 C83.9745615,7.13811173 85.9284072,8.48467177 85.9284072,11.7610402 L85.9284072,19.7334064 L84.0564118,19.7334064 L84.0564118,19.0144582 L84.0564118,19.0144582 Z M81.7976077,12.8727352 C80.4365166,12.8727352 79.2972133,13.998783 79.2972133,15.5488928 C79.2972133,17.1133555 80.4365166,18.2550609 81.7976077,18.2550609 C83.1388964,18.2550609 84.1963494,17.1133555 84.1963494,15.5488928 C84.1963494,13.998783 83.1388964,12.8727352 81.7976077,12.8727352 L81.7976077,12.8727352 Z M107.546125,24.4424521 L102.822571,24.4424521 L102.822571,11.3943897 L104.792259,11.3943897 L104.792259,16.3383005 L107.546125,16.3383005 C109.73364,16.3383005 111.87891,17.9027632 111.87891,20.3910287 C111.87891,22.8779894 109.72836,24.4424521 107.546125,24.4424521 L107.546125,24.4424521 Z M107.597612,18.153286 L104.792259,18.153286 L104.792259,22.6274666 L107.597612,22.6274666 C109.068277,22.6274666 109.907902,21.4205209 109.907902,20.3910287 C109.907902,19.3811087 109.068277,18.153286 107.597612,18.153286 Z M119.773503,20.0282926 C118.350364,20.0282926 116.870458,19.4072048 116.261861,18.0306342 L118.009761,17.3064668 C118.386008,18.0306342 119.077775,18.2654994 119.809147,18.2654994 C120.830956,18.2654994 121.867286,17.6587645 121.883128,16.5875185 L121.883128,16.4505139 C121.526683,16.6540637 120.763627,16.9554739 119.824989,16.9554739 C117.942433,16.9554739 116.024231,15.931201 116.024231,14.0196599 C116.024231,12.2712195 117.566185,11.1451717 119.299563,11.1451717 C120.62501,11.1451717 121.356382,11.7362489 121.8158,12.4238818 L121.883128,12.4238818 L121.883128,11.4152666 L123.785487,11.4152666 L123.785487,16.4205033 C123.785487,18.7339248 122.037588,20.0282926 119.773503,20.0282926 Z M119.535873,12.8779544 C118.891632,12.8779544 117.993919,13.1937175 117.993919,13.9831253 C117.993919,14.9930453 119.11342,15.3805728 120.082422,15.3805728 C120.949771,15.3805728 121.356382,15.1913759 121.883128,14.9421579 C121.728669,13.7339073 120.676496,12.8779544 119.535873,12.8779544 L119.535873,12.8779544 Z M130.716359,19.74254 L128.452274,14.086205 L128.384946,14.086205 L126.044291,19.74254 L123.920144,19.74254 L127.437067,11.8380238 L125.430414,7.43952197 L127.488553,7.43952197 L132.907834,19.74254 L130.716359,19.74254 L130.716359,19.74254 Z M112.961446,11.3943897 L114.936415,11.3943897 L114.936415,24.4424521 L112.961446,24.4424521 L112.961446,11.3943897 Z" id="path46" fill="#FFFFFF" fill-rule="nonzero"></path>
                                        <g id="g48" transform="translate(10.269116, 8.482719)" fill="url(#linearGradient-1)">
                                            <path d="M0.776835564,26.3577339 C0.466596554,26.0367516 0.287053978,25.5370108 0.287053978,24.8898269 L0.287053978,1.80519483 C0.287053978,1.15801093 0.466596554,0.658270143 0.776835564,0.337287808 L0.853405192,0.26682827 L13.9415309,13.1974581 L13.9415309,13.5027828 L0.853405192,26.4334127 L0.776835564,26.3577339 Z" id="path64"></path>
                                        </g>
                                        <g id="g66" transform="translate(23.788194, 16.613615)" fill="url(#linearGradient-2)">
                                            <path d="M4.78032108,0.754178008 L0.42245312,5.06656264 L0.42245312,5.3718873 L4.78560175,9.68427193 L4.88329403,9.62816526 L10.0504238,6.72236176 C11.5250492,5.89772422 11.5250492,4.54072572 10.0504238,3.71086895 L4.88329403,0.810284677 L4.78032108,0.754178008 L4.78032108,0.754178008 Z" id="path78"></path>
                                        </g>
                                        <g id="g80" transform="translate(10.586534, 7.479971)" fill="url(#linearGradient-3)">
                                            <path d="M18.084954,9.94392838 L13.6241131,14.3528687 L0.459417768,1.34003601 C0.949199354,0.831161577 1.74789978,0.769835683 2.65617399,1.27871012 L18.084954,9.94392838" id="path88"></path>
                                        </g>
                                        <g id="g90" transform="translate(10.586534, 21.832840)" fill="url(#linearGradient-4)">
                                            <path d="M18.084954,4.40894029 L2.65617399,13.0741586 C1.74789978,13.5778138 0.949199354,13.5164879 0.459417768,13.0076134 L13.6241131,0 L18.084954,4.40894029 Z" id="path104"></path>
                                        </g>
                                    </g>
                                </g>
                            </g>
                        </g>
                    </g>
                </g>
            </g>
        </g>
    </g>
</svg>