<?xml version="1.0" encoding="UTF-8"?>
<svg width="68px" height="44px" viewBox="0 0 68 44" version="1.1" xmlns="http://www.w3.org/2000/svg" xmlns:xlink="http://www.w3.org/1999/xlink">
    <!-- Generator: sketchtool 52.5 (67469) - http://www.bohemiancoding.com/sketch -->
    <title>DEF32019-FA08-42C8-A36F-3D73223942E6</title>
    <desc>Created with sketchtool.</desc>
    <g id="Welcome" stroke="none" stroke-width="1" fill="none" fill-rule="evenodd">
        <g id="home-copy-10" transform="translate(-1309.000000, -2796.000000)">
            <g id="footer" transform="translate(-6.594341, 2334.544596)">
                <g id="Group-23" transform="translate(1238.133496, 462.467487)">
                    <g id="Group-27" transform="translate(78.000000, 0.000000)">
                        <g id="Group-38">
                            <rect id="Rectangle" fill="#F2F2F2" fill-rule="nonzero" x="0" y="0" width="66" height="42" rx="9"></rect>
                            <g id="Visa_Inc._logo-(1)" transform="translate(7.970082, 13.850238)">
                                <polygon id="polygon9" fill="#00579F" points="20.3048745 15.0639975 16.5265256 15.0639975 18.8897757 0.451434097 22.667918 0.451434097"></polygon>
                                <path d="M34.001725,0.808669578 C33.2564686,0.513005047 32.0744303,0.186555041 30.6128434,0.186555041 C26.8816025,0.186555041 24.2540931,2.17624717 24.2379773,5.02090773 C24.2069852,7.11969201 26.1191971,8.28540779 27.5493787,8.98520916 C29.0111722,9.70029997 29.5080787,10.1670408 29.5080787,10.8044448 C29.4932025,11.7833816 28.3268669,12.2346264 27.2390446,12.2346264 C25.7305563,12.2346264 24.9222826,12.0019791 23.6939628,11.4573448 L23.1964364,11.2238711 L22.6677114,14.5040738 C23.5538785,14.9077974 25.1865418,15.266066 26.8816025,15.2817686 C30.8461105,15.2817686 33.4271317,13.322862 33.4577106,10.2914224 C33.4727934,8.62797368 32.4630711,7.35337236 30.2861868,6.31183155 C28.9646841,5.64322888 28.1553773,5.19239729 28.1553773,4.50829857 C28.1708734,3.88639065 28.8398893,3.24939991 30.3316418,3.24939991 C31.5599616,3.21820121 32.4624513,3.51345251 33.1461368,3.80891043 L33.4878762,3.96407749 L34.001725,0.808669578 Z" id="path11" fill="#00579F"></path>
                                <path d="M39.0234765,9.88728557 C39.3346371,9.04781318 40.5319648,5.79880917 40.5319648,5.79880917 C40.5162622,5.83000787 40.8425056,4.94384073 41.0290779,4.39982626 L41.2931305,5.65893154 C41.2931305,5.65893154 42.0086346,9.15669872 42.1640083,9.88728557 C41.5735056,9.88728557 39.7697661,9.88728557 39.0234765,9.88728557 Z M43.6873727,0.451434097 L40.7648187,0.451434097 C39.8635688,0.451434097 39.1788502,0.715486697 38.7900028,1.66384463 L33.1777487,15.0637909 L37.1422567,15.0637909 C37.1422567,15.0637909 37.7949501,13.2602579 37.935241,12.8718238 C38.3701633,12.8718238 42.2268189,12.8718238 42.7863294,12.8718238 C42.8948017,13.3848461 43.237161,15.0637909 43.237161,15.0637909 L46.735548,15.0637909 L43.6873727,0.451434097 Z" id="path13" fill="#00579F" fill-rule="nonzero"></path>
                                <path d="M13.3707045,0.451434097 L9.67045565,10.415804 L9.26611219,8.39491317 C8.58201348,6.06306838 6.43653445,3.5295684 4.04229225,2.26984328 L7.43158712,15.0485015 L11.4270873,15.0485015 L17.365998,0.451434097 L13.3707045,0.451434097 Z" id="path15" fill="#00579F"></path>
                                <path d="M6.23446603,0.451434097 L0.155471038,0.451434097 L0.0932802455,0.7466854 C4.83527651,1.95930254 7.97580821,4.88226978 9.26611219,8.39553301 L7.94460951,1.6797539 C7.72704504,0.746478786 7.05844237,0.482219572 6.23446603,0.451434097 Z" id="path17" fill="#FAA61A"></path>
                            </g>
                        </g>
                    </g>
                </g>
            </g>
        </g>
    </g>
</svg>